<svg width="672" height="489" viewBox="0 0 672 489" fill="none" xmlns="http://www.w3.org/2000/svg">
<path d="M62.9999 231.5C36.3613 238.765 15.1666 260.167 8.49994 275L0.499939 300.5C0.5 312 12.9999 330 22.4999 346C26.1803 352.199 49.8574 362.106 79 371.952C109.776 382.349 146.647 392.679 172.5 398.5C221.5 398.5 318 396 339 391C371 383.381 447.167 367.5 490 351.5C507.6 341.9 518 333.667 490 315C472 303 473.5 305 417.5 283C347.5 255.5 181.5 231.5 148 229C114.5 226.5 90.4999 224 62.9999 231.5Z" fill="#C4C4C4" fill-opacity="0.23"/>
<path d="M148 135C167.33 135 183 119.33 183 100C183 80.67 167.33 65 148 65C128.67 65 113 80.67 113 100C113 119.33 128.67 135 148 135Z" fill="#F2F2F2"/>
<path d="M148 74.2453C149.094 74.2453 149.981 73.3583 149.981 72.2642C149.981 71.17 149.094 70.283 148 70.283C146.906 70.283 146.019 71.17 146.019 72.2642C146.019 73.3583 146.906 74.2453 148 74.2453Z" fill="black" fill-opacity="0.1"/>
<path d="M120.264 101.981C121.358 101.981 122.245 101.094 122.245 100C122.245 98.9058 121.358 98.0189 120.264 98.0189C119.17 98.0189 118.283 98.9058 118.283 100C118.283 101.094 119.17 101.981 120.264 101.981Z" fill="black" fill-opacity="0.1"/>
<path d="M175.736 101.981C176.83 101.981 177.717 101.094 177.717 100C177.717 98.9058 176.83 98.0189 175.736 98.0189C174.642 98.0189 173.755 98.9058 173.755 100C173.755 101.094 174.642 101.981 175.736 101.981Z" fill="black" fill-opacity="0.1"/>
<path d="M148 129.717C149.094 129.717 149.981 128.83 149.981 127.736C149.981 126.642 149.094 125.755 148 125.755C146.906 125.755 146.019 126.642 146.019 127.736C146.019 128.83 146.906 129.717 148 129.717Z" fill="black" fill-opacity="0.1"/>
<path fill-rule="evenodd" clip-rule="evenodd" d="M148 76.2264L149.321 99.3396H146.679L148 76.2264Z" fill="#AFB9C5"/>
<path fill-rule="evenodd" clip-rule="evenodd" d="M159.688 111.688L147.547 101.415L149.415 99.5468L159.688 111.688Z" fill="#AFB9C5"/>
<path d="M148 102.642C149.459 102.642 150.642 101.459 150.642 100C150.642 98.5411 149.459 97.3585 148 97.3585C146.541 97.3585 145.358 98.5411 145.358 100C145.358 101.459 146.541 102.642 148 102.642Z" fill="#C5CFD6"/>
<g opacity="0.57" clip-path="url(#clip0)">
<path d="M626.224 148.792C641.201 148.792 653.343 142.364 653.343 134.435C653.343 126.505 641.201 120.077 626.224 120.077C611.246 120.077 599.105 126.505 599.105 134.435C599.105 142.364 611.246 148.792 626.224 148.792Z" fill="#F2F2F2"/>
<path fill-rule="evenodd" clip-rule="evenodd" d="M657.81 144.325C657.81 126.705 643.668 112.42 626.224 112.42C608.78 112.42 594.638 126.705 594.638 144.325" fill="#DDE3E9"/>
<path d="M628 37H625V117H628V37Z" fill="#DDE3E9"/>
</g>
<g opacity="0.57" clip-path="url(#clip1)">
<path d="M527.376 117.817C540.565 117.817 551.257 112.156 551.257 105.174C551.257 98.1912 540.565 92.5308 527.376 92.5308C514.187 92.5308 503.495 98.1912 503.495 105.174C503.495 112.156 514.187 117.817 527.376 117.817Z" fill="#F2F2F2"/>
<path fill-rule="evenodd" clip-rule="evenodd" d="M555.191 113.883C555.191 98.3667 542.738 85.788 527.376 85.788C512.015 85.788 499.562 98.3667 499.562 113.883" fill="#DDE3E9"/>
<path d="M529 51H526V90H529V51Z" fill="#DDE3E9"/>
</g>
<g clip-path="url(#clip2)">
<path d="M517.175 352.218H492.568C491.769 352.218 491.121 352.866 491.121 353.665V357.284C491.121 358.083 491.769 358.731 492.568 358.731H517.175C517.975 358.731 518.623 358.083 518.623 357.284V353.665C518.623 352.866 517.975 352.218 517.175 352.218Z" fill="#AFB9C5"/>
<path fill-rule="evenodd" clip-rule="evenodd" d="M498.358 331.23C501.465 321.159 503.206 310.544 503.581 299.385H505.595H506.886C507.261 310.544 509.002 321.159 512.109 331.23H516.813C523.009 331.23 528.031 336.252 528.031 342.447C528.031 348.643 523.009 353.665 516.813 353.665H492.93C486.734 353.665 481.712 348.643 481.712 342.447C481.712 336.252 486.734 331.23 492.93 331.23H498.358Z" fill="#DDE3E9"/>
<path fill-rule="evenodd" clip-rule="evenodd" d="M479.267 249.215C487.561 248.405 495.854 248 504.148 248C512.441 248 520.735 248.405 529.028 249.215L532.374 306.719C522.965 307.62 513.556 308.07 504.148 308.07C494.739 308.07 485.331 307.62 475.922 306.719L479.267 249.215Z" fill="#C5CFD6"/>
<path fill-rule="evenodd" clip-rule="evenodd" d="M474.475 358.731H534.545H549.743V434H534.545V374.654H474.475V434H459.276V358.731H474.475Z" fill="#F2F2F2"/>
</g>
<g clip-path="url(#clip3)">
<path fill-rule="evenodd" clip-rule="evenodd" d="M85.4309 218.158C92.134 234.086 103.529 245.153 109.564 261.714C113.142 271.536 114.634 282.215 114.725 293.152C114.774 299.093 114.67 305.037 114.643 310.978C114.615 316.771 114.458 322.527 113.966 328.283C113.472 334.07 112.919 339.788 112.675 345.61C112.485 350.147 112.398 355.424 110.86 359.562C109.637 362.853 106.529 363.335 105.705 359.344C105.246 357.125 105.304 354.648 105.355 352.367C105.419 349.442 105.59 346.52 105.676 343.595C106.025 331.857 105.573 320.117 105.809 308.374C106.04 296.902 107.515 285.441 105.883 274.045C104.536 264.634 101.113 256.552 97.1786 248.805C93.3937 241.351 89.2742 234.078 86.7165 225.6C85.982 223.165 85.4143 220.641 85.1419 218.023C85.2609 217.968 85.3573 218.013 85.4309 218.158Z" fill="#C1DEE2"/>
<path fill-rule="evenodd" clip-rule="evenodd" d="M83.6041 249.582C84.9314 250.54 85.6731 251.942 86.5702 253.326C87.6859 255.045 88.9975 256.598 90.1128 258.319C92.4386 261.908 94.4819 265.716 96.6019 269.45C100.627 276.537 103.683 284.09 105.197 292.289C106.765 300.786 107.188 309.556 107.847 318.179C108.545 327.319 109.248 336.526 109.34 345.701C109.381 349.812 109.604 354.175 109.11 358.257C108.803 360.798 107.656 362.964 105.071 362.943C99.5792 362.9 97.001 356.817 95.9239 351.829C94.3384 344.483 94.022 336.681 94.2731 329.169C94.5763 320.112 96.1484 311.19 96.8287 302.167C97.5493 292.615 97.1422 283.232 93.8583 274.239C92.1992 269.694 90.2737 265.258 88.5448 260.743C87.8085 258.821 87.2055 256.846 86.2111 255.056C85.1048 253.065 83.7316 251.258 82.8653 249.113C83.1114 249.27 83.3579 249.426 83.6041 249.582Z" fill="#89C5CC"/>
<path fill-rule="evenodd" clip-rule="evenodd" d="M146.864 230.535C147.032 230.404 147.201 230.273 147.369 230.142C146.884 232.185 146.008 233.845 145.338 235.713C144.736 237.392 144.431 239.292 144.026 241.128C143.074 245.439 141.974 249.653 141.074 254C139.294 262.604 139.631 271.872 140.799 281.417C141.901 290.433 143.645 299.436 144.476 308.45C145.164 315.926 145.46 323.635 144.803 330.768C144.357 335.612 142.894 341.396 138.906 340.907C137.029 340.677 136.05 338.418 135.655 335.867C135.021 331.77 134.889 327.463 134.642 323.389C134.091 314.297 133.981 305.232 133.872 296.233C133.769 287.743 133.485 279.084 134.052 270.807C134.6 262.821 136.311 255.624 138.758 248.984C140.047 245.486 141.275 241.906 142.723 238.572C143.418 236.972 144.266 235.559 144.961 233.961C145.519 232.676 145.964 231.357 146.864 230.535Z" fill="#C1DEE2"/>
<path fill-rule="evenodd" clip-rule="evenodd" d="M85.3003 275.903C86.0265 274.684 87.6249 278.704 87.8682 279.21C87.7653 278.958 87.662 278.707 87.5578 278.456C88.9992 280.853 90.3178 283.348 91.1376 286.096C91.9489 288.817 92.6458 291.592 93.407 294.332C94.8353 299.473 96.6779 304.467 97.972 309.654C99.2329 314.708 99.5509 319.677 99.2456 324.905C98.9284 330.339 98.7343 335.856 99.1044 341.287C99.2811 343.881 100.124 346.297 100.702 348.794C101.28 351.293 101.735 353.826 102.419 356.295C102.576 355.973 102.596 357.048 102.596 357.13C102.591 357.746 102.505 358.264 102.307 358.848C101.797 360.352 100.843 361.63 99.3918 362.044C96.7688 362.794 94.3334 360.408 93.4876 357.888C92.2741 354.273 91.6055 350.279 91.0272 346.479C90.497 342.995 90.3715 339.49 90.529 335.958C90.8393 328.992 92.0999 322.118 92.4409 315.154C92.812 307.573 91.31 300.45 90.0523 293.071C89.4466 289.515 88.8677 285.993 87.6888 282.605C87.2116 281.233 86.5893 280.023 85.9368 278.756C85.5656 278.035 84.8148 276.75 85.3003 275.903Z" fill="#C1DEE2"/>
<path fill-rule="evenodd" clip-rule="evenodd" d="M106.581 264.061C106.281 272.746 105.762 281.365 104.604 289.959C103.422 298.728 102.065 307.468 100.928 316.245C99.8209 324.789 98.6607 333.475 98.8154 342.139C98.9293 348.52 97.8712 359.315 104.958 362.464C112.136 365.654 113.676 352.033 114.147 347.538C115.051 338.912 114.758 330.196 114.32 321.523C113.87 312.622 113.119 303.767 112.188 294.899C111.153 285.048 110.342 275.153 109.691 265.274C109.369 260.388 109.289 255.51 109.378 250.622C109.462 246.01 109.287 241.351 107.647 236.972C107.561 237.034 107.476 237.096 107.39 237.158" fill="#69A1AC"/>
<path fill-rule="evenodd" clip-rule="evenodd" d="M143.637 291.576C142.346 293.456 141.045 295.319 139.826 297.311C137.645 300.875 135.672 304.838 135.079 309.934C133.837 320.599 134.833 332.117 135.074 343.109C135.123 345.355 134.839 347.533 135.724 349.67C136.527 351.609 138.028 353.086 139.458 353.078C142.52 353.061 142.053 345.562 142.058 342.261C142.067 336.476 141.419 330.632 141.475 324.853C141.53 319.127 141.879 313.385 142.709 307.947C143.549 302.442 144.78 297.157 146.404 292.224C146.63 291.54 148.248 286.25 146.719 287.162" fill="#89C5CC"/>
<path fill-rule="evenodd" clip-rule="evenodd" d="M130.114 234.695C128.101 234.695 128.113 244.732 128.052 246.021C127.834 250.673 127.885 255.327 127.747 259.98C127.444 270.135 127.072 280.378 125.547 290.416C124.725 295.819 123.773 301.199 122.749 306.561C121.722 311.939 120.343 317.31 119.668 322.756C119.019 327.992 119.385 333.33 119.474 338.591C119.563 343.884 119.723 349.188 120.417 354.435C120.588 355.73 120.789 357.02 121.003 358.307C121.182 359.38 121.078 360.71 121.38 361.73C121.866 363.362 123.945 363.897 125.345 363.642C129.134 362.95 131.554 358.193 132.848 354.717C134.501 350.279 135.378 345.465 136.243 340.787C137.224 335.489 137.798 330.109 138.068 324.714C138.616 313.75 137.913 302.774 137.127 291.845C136.69 285.767 136.186 279.716 135.414 273.675C134.645 267.661 133.658 261.673 133.016 255.641C132.549 251.257 132.089 246.867 131.787 242.467C131.715 241.418 131.654 234.695 130.114 234.695Z" fill="#69A1AC"/>
<path fill-rule="evenodd" clip-rule="evenodd" d="M127.593 307.651C127.265 297.114 123.029 250.828 122.066 238.085C121.825 234.896 119.504 221.616 119.204 218C118.387 219.022 118.457 234.93 118.466 238.585C118.476 242.201 118.027 245.757 117.797 249.353C117.561 253.022 112.136 300.413 111.432 303.939C110.032 310.954 109.095 318.152 108.372 325.324C107.667 332.315 106.572 339.69 107.515 346.717C107.731 348.335 108.074 349.927 108.632 351.413C109.235 353.019 109.649 354.504 110.133 356.184C110.912 358.891 112.321 361.266 114.486 362.383C118.925 364.674 121.308 359.488 122.516 354.973C124.446 347.762 125.685 340.434 126.265 332.861C126.908 324.483 127.856 316.087 127.593 307.651Z" fill="#89C5CC"/>
<path d="M148.128 338.66H82.1064C81.2682 338.66 80.5887 339.339 80.5887 340.177V406.199C80.5887 407.037 81.2682 407.716 82.1064 407.716H148.128C148.966 407.716 149.645 407.037 149.645 406.199V340.177C149.645 339.339 148.966 338.66 148.128 338.66Z" fill="white"/>
<path d="M79.0709 346.248H74.5177C73.6795 346.248 73 346.928 73 347.766V430.482C73 431.32 73.6795 432 74.5177 432H79.0709C79.9091 432 80.5887 431.32 80.5887 430.482V347.766C80.5887 346.928 79.9091 346.248 79.0709 346.248Z" fill="#C5CFD6"/>
<path d="M117.014 346.248H112.461C111.623 346.248 110.943 346.928 110.943 347.766V430.482C110.943 431.32 111.623 432 112.461 432H117.014C117.852 432 118.532 431.32 118.532 430.482V347.766C118.532 346.928 117.852 346.248 117.014 346.248Z" fill="#C5CFD6"/>
<path d="M155.716 346.248H151.163C150.325 346.248 149.646 346.928 149.646 347.766V430.482C149.646 431.32 150.325 432 151.163 432H155.716C156.555 432 157.234 431.32 157.234 430.482V347.766C157.234 346.928 156.555 346.248 155.716 346.248Z" fill="#C5CFD6"/>
</g>
<g clip-path="url(#clip4)">
<path fill-rule="evenodd" clip-rule="evenodd" d="M601.33 239.137C603.593 238.86 606.008 238.958 608.112 239.851C612.587 241.75 613.859 247.037 613.797 251.333C613.731 255.958 612.749 261.009 616.265 264.735C617.881 266.448 619.892 267.759 621.479 269.504C623.174 271.368 624.505 273.501 625.49 275.792C627.299 279.999 628.187 284.947 626.533 289.361C625.076 293.246 621.412 296.754 622.204 301.172C623.03 305.782 627.677 309.306 630.582 312.739C633.871 316.624 636.898 321.59 637.396 326.686C637.872 331.569 635.747 336.508 632.485 340.199C625.967 347.575 616.17 351.19 606.292 351.168C602.098 351.158 597.349 350.969 593.73 348.715C592.611 348.018 592.021 347.237 591.356 346.15C590.76 345.176 589.972 344.542 589.06 343.853C587.058 342.339 585.611 340.298 584.688 338.013C581.103 329.14 583.968 318.164 588.986 310.284C590.175 308.417 591.148 306.621 590.571 304.396C589.968 302.073 588.487 299.978 587.176 297.982C585.882 296.009 584.403 294.126 583.391 291.993C582.332 289.758 582.033 287.417 582.22 284.971C582.572 280.377 584.556 276.137 587.364 272.442C590.069 268.882 593.244 265.477 593.252 260.813C593.259 255.87 589.955 251.473 591.363 246.448C591.946 244.367 593.116 242.232 595.003 240.985C596.813 239.788 599.202 239.397 601.33 239.137Z" fill="#DDE3E9"/>
<path fill-rule="evenodd" clip-rule="evenodd" d="M599.851 247.039C599.894 246.375 600.681 245.977 601.301 246.15C602.117 246.378 602.101 247.14 602.08 247.82C602.014 249.907 602.316 251.936 602.818 253.962C603.861 258.174 605.789 262.055 607.316 266.1C608.842 270.143 609.558 274.317 608.663 278.594C607.819 282.627 606.493 286.556 605.63 290.594C604.869 294.153 604.059 297.906 605.218 301.456C606.333 304.873 608.8 307.656 610.575 310.744C614.252 317.137 615.883 324.229 616.101 331.527C616.202 334.916 616.111 338.336 615.325 341.66C614.872 343.574 614.264 346.16 612.624 347.482C611.868 348.091 610.574 348.302 609.938 347.399C609.34 346.553 609.864 345.243 610.054 344.341C610.876 340.436 611.041 336.445 610.844 332.48C610.654 328.639 610.2 324.805 608.991 321.137C607.87 317.733 606.165 314.676 604.159 311.698C602.115 308.663 599.99 305.622 599.146 302.027C598.288 298.375 598.985 294.659 599.917 291.077C600.903 287.288 602.194 283.608 603.529 279.922C604.83 276.33 605.291 272.931 604.573 269.172C603.154 261.744 599.357 254.773 599.851 247.039Z" fill="#C5CFD6"/>
<path fill-rule="evenodd" clip-rule="evenodd" d="M661.075 248.149C663.875 248.999 666.656 250.371 668.652 252.522C672.896 257.096 671.594 264.009 669.251 269.059C666.729 274.494 662.907 279.956 665.062 286.192C666.052 289.059 667.717 291.655 668.656 294.544C669.66 297.631 670.093 300.846 670.038 304.067C669.936 309.984 668.362 316.297 664.089 320.656C660.327 324.494 654.175 326.736 652.768 332.373C651.3 338.254 654.889 344.839 656.482 350.411C658.285 356.717 659.211 364.164 657.101 370.449C655.079 376.472 649.976 381.207 644.199 383.875C632.656 389.207 619.254 388.387 607.679 383.221C602.765 381.028 597.295 378.334 594.242 373.785C593.298 372.38 593.019 371.148 592.813 369.517C592.629 368.055 592.04 366.896 591.335 365.606C589.786 362.774 589.168 359.608 589.293 356.426C589.779 344.068 598.941 332.576 608.991 325.868C611.372 324.279 613.463 322.661 613.962 319.729C614.482 316.669 613.852 313.421 613.371 310.378C612.895 307.371 612.156 304.376 612.097 301.326C612.035 298.131 612.922 295.208 614.435 292.413C617.276 287.162 621.844 283.18 627.09 280.271C632.144 277.469 637.669 275.093 640.142 269.582C642.764 263.74 641.212 256.821 645.52 251.61C647.303 249.453 649.805 247.537 652.677 247.043C655.432 246.569 658.441 247.349 661.075 248.149Z" fill="#DDE3E9"/>
<path fill-rule="evenodd" clip-rule="evenodd" d="M655.355 257.809C655.752 257.045 656.881 256.986 657.516 257.516C658.35 258.214 657.933 259.108 657.552 259.902C656.381 262.339 655.672 264.901 655.198 267.563C654.211 273.097 654.433 278.703 654.1 284.295C653.767 289.882 652.419 295.2 649.132 299.796C646.033 304.13 642.425 308.087 639.301 312.417C636.547 316.233 633.634 320.253 633.13 325.065C632.645 329.696 634.071 334.284 634.53 338.872C635.481 348.369 633.674 357.623 630.107 366.38C628.45 370.446 626.553 374.449 623.892 377.973C622.361 380.002 620.295 382.746 617.685 383.452C616.482 383.777 614.859 383.348 614.587 381.946C614.332 380.631 615.631 379.354 616.325 378.385C619.331 374.191 621.615 369.552 623.461 364.753C625.25 360.105 626.728 355.327 627.235 350.349C627.706 345.73 627.314 341.216 626.528 336.638C625.727 331.974 624.835 327.259 625.731 322.558C626.64 317.783 629.401 313.748 632.367 309.995C635.504 306.025 638.942 302.343 642.433 298.677C645.836 295.106 648.155 291.323 649.284 286.494C651.515 276.955 650.726 266.709 655.355 257.809Z" fill="#C5CFD6"/>
<path fill-rule="evenodd" clip-rule="evenodd" d="M574.511 283.235C579.167 283.235 583.26 285.703 586.081 289.205C589.382 293.305 590.049 298.312 591.39 303.198C592.057 305.63 593.205 308.044 595.215 309.696C597.044 311.198 599.366 311.499 601.555 312.233C605.931 313.7 609.463 317.234 610.859 321.546C612.561 326.806 610.758 332.11 611.068 337.441C611.353 342.336 616.18 345.39 620.063 347.737C623.893 350.051 627.342 352.217 628.496 356.725C629.719 361.506 630.129 366.843 628.435 371.566C625.615 379.43 617.361 382.893 609.385 383.43C602.148 383.917 593.047 383.152 587.611 377.899C584.359 374.755 583.181 370.358 583.327 365.983C583.418 363.263 583.956 360.568 584.653 357.939C585.147 356.076 585.814 354.22 586.004 352.295C586.509 347.173 581.775 346.189 577.745 344.783C572.625 342.995 569.04 339.619 566.547 334.916C564.225 330.537 563.251 325.621 564.643 320.799C565.354 318.337 566.643 316.103 568.391 314.204C569.161 313.367 570.246 312.67 570.94 311.791C571.589 310.971 571.448 309.908 571.224 308.947C570.191 304.508 566.972 300.833 565.82 296.402C564.781 292.403 565.395 287.425 569.052 284.845C570.632 283.73 572.58 283.248 574.511 283.235Z" fill="#C5CFD6"/>
<path fill-rule="evenodd" clip-rule="evenodd" d="M580.855 294.801C585.79 300.057 587.131 307.189 587.525 314.102C587.745 317.978 587.516 322.067 588.655 325.827C589.629 329.045 591.914 331.505 594.268 333.83C599.008 338.51 604.294 343.268 605.681 350.041C606.494 354.016 605.945 358.122 607.069 362.053C608.091 365.627 609.891 369.137 612.079 372.155C613.842 374.585 616.138 376.445 618.064 378.71C618.652 379.402 619.494 380.42 619.251 381.396C618.968 382.539 617.511 382.901 616.478 382.721C614.07 382.303 612.042 380.003 610.467 378.33C608.164 375.885 606.207 373.255 604.616 370.305C602.851 367.029 601.429 363.553 600.821 359.878C600.191 356.064 600.505 352.091 599.065 348.431C596.643 342.274 590.767 338.64 586.519 333.841C581.226 327.861 582.016 320.418 582.558 313.062C582.856 309.019 583.152 304.454 581.109 300.763C580.329 299.354 578.591 298.041 578.255 296.439C577.948 294.972 579.624 293.489 580.855 294.801Z" fill="#AFB9C5"/>
<path fill-rule="evenodd" clip-rule="evenodd" d="M586.118 381.185C586.118 411.248 591.024 427 616.925 427C642.825 427 647.731 411.248 647.731 381.185H586.118Z" fill="#89C5CC"/>
</g>
<g clip-path="url(#clip5)">
<path d="M101.965 117.208L86.3608 101.593C83.7358 98.9673 79.4789 98.9664 76.8528 101.591C76.8522 101.592 76.8515 101.593 76.8508 101.593L35.308 143.157C32.7875 145.679 31.3716 149.098 31.3716 152.663V427.957" stroke="#CBCBCB" stroke-width="8"/>
<path d="M9.52119 427.117H54.0623C55.4547 427.117 56.5835 428.246 56.5835 429.638V430.479C56.5835 431.871 55.4547 433 54.0623 433H9.52119C8.12878 433 7 431.871 7 430.479V429.638C7 428.246 8.12878 427.117 9.52119 427.117Z" fill="#AFB9C5"/>
<path fill-rule="evenodd" clip-rule="evenodd" d="M92.5796 108.047C81.7492 118.877 81.7492 136.437 92.5796 147.267L109.219 163.906L148.439 124.686L131.8 108.047C120.97 97.2162 103.41 97.2162 92.5796 108.047Z" fill="#C5CFD6"/>
<path d="M132.028 147.707C121.197 158.538 110.688 165.588 108.555 163.455C106.422 161.322 113.472 150.812 124.303 139.982C135.133 129.151 145.642 122.101 147.775 124.234C149.909 126.368 142.858 136.877 132.028 147.707Z" fill="#F2F2F2"/>
</g>
<path fill-rule="evenodd" clip-rule="evenodd" d="M341.316 187.726C344.848 183.579 347.239 178.497 346.84 172.803C345.689 156.396 322.85 160.005 318.407 168.286C313.964 176.567 314.492 197.572 320.234 199.052C322.524 199.642 327.402 198.196 332.366 195.204L329.25 217.25H347.65L341.316 187.726Z" fill="#B28B67"/>
<path fill-rule="evenodd" clip-rule="evenodd" d="M310.255 156.806C310.636 155.467 311.661 154.32 313.042 153.98C313.377 153.898 313.723 153.864 314.068 153.878C314.192 153.883 314.226 153.919 314.284 153.832C314.327 153.768 314.328 153.612 314.345 153.536C314.4 153.302 314.469 153.071 314.554 152.845C314.843 152.077 315.328 151.397 315.914 150.824C317.009 149.752 318.488 149.012 320.026 148.879C320.867 148.805 321.702 148.942 322.498 149.216C322.909 149.357 323.309 149.534 323.698 149.729C323.815 149.788 324.195 150.075 324.312 150.057C324.442 150.036 324.703 149.713 324.808 149.632C326.113 148.632 327.724 148.238 329.348 148.25C331.182 148.264 332.948 148.355 334.478 149.473C334.801 149.71 335.11 149.969 335.403 150.242C335.558 150.386 335.708 150.535 335.85 150.69C335.937 150.784 336.02 150.879 336.101 150.978C336.238 151.145 336.216 151.199 336.408 151.083C337.144 150.636 337.997 150.427 338.856 150.532C339.367 150.595 339.863 150.748 340.334 150.95C340.495 151.018 340.866 151.292 341.037 151.295C341.207 151.297 341.573 151.044 341.748 150.979C342.692 150.631 343.709 150.545 344.701 150.706C345.725 150.872 346.73 151.28 347.597 151.844C348.014 152.116 348.378 152.417 348.67 152.82C348.797 152.995 348.911 153.179 349.054 153.34C349.137 153.435 349.303 153.532 349.348 153.652C349.321 153.58 350.468 153.138 350.576 153.11C351.152 152.96 351.739 152.99 352.303 153.176C353.364 153.525 354.276 154.308 355.026 155.111C355.411 155.523 355.748 155.979 356.035 156.464C356.172 156.697 356.297 156.936 356.412 157.181C356.467 157.299 356.504 157.447 356.577 157.554C356.672 157.691 356.735 157.694 356.906 157.754C357.775 158.058 358.566 158.573 359.169 159.269C359.779 159.972 360.174 160.839 360.34 161.752C360.35 161.806 360.356 162.029 360.387 162.058C360.43 162.098 360.605 162.08 360.671 162.088C360.9 162.115 361.127 162.155 361.351 162.208C361.764 162.306 362.166 162.45 362.547 162.638C364.029 163.371 365.09 164.747 365.609 166.294C366.153 167.918 366.144 169.779 365.493 171.373C365.388 171.63 365.263 171.88 365.116 172.117C365.025 172.262 364.996 172.262 365.055 172.414C365.12 172.584 365.239 172.748 365.317 172.914C365.57 173.454 365.747 174.027 365.858 174.612C366.042 175.572 366.133 176.58 365.952 177.547C365.868 177.996 365.722 178.435 365.498 178.835C365.385 179.039 365.252 179.232 365.101 179.411C365.023 179.504 364.94 179.593 364.854 179.678C364.804 179.726 364.739 179.769 364.697 179.823C364.594 179.955 364.572 179.846 364.625 180.041C364.7 180.312 364.868 180.58 364.971 180.844C365.077 181.116 365.173 181.392 365.261 181.671C365.438 182.235 365.589 182.809 365.683 183.394C365.863 184.515 365.831 185.711 365.301 186.74C365.074 187.181 364.748 187.567 364.354 187.868C364.16 188.015 363.951 188.141 363.731 188.245C363.619 188.299 363.475 188.322 363.423 188.431C363.368 188.548 363.45 188.781 363.469 188.912C363.632 190.053 363.714 191.251 363.375 192.37C363.062 193.399 362.374 194.309 361.481 194.911C359.749 196.079 357.414 196.013 355.594 195.078C355.119 194.834 354.675 194.532 354.279 194.175C353.271 195.532 351.196 195.489 349.722 195.102C347.886 194.62 346.413 193.344 345.564 191.666C344.403 193.079 341.968 192.621 341.163 191.088C340.966 190.713 340.849 190.299 340.791 189.881C340.761 189.661 340.78 189.439 340.758 189.221C340.729 188.943 340.543 188.672 340.436 188.403C340.228 187.88 340.099 187.339 340.093 186.774C340.09 186.479 340.128 186.192 340.156 185.899C340.181 185.636 340.108 185.391 340.067 185.131C340.537 185.208 341.111 185.081 341.555 184.945C341.99 184.811 342.398 184.458 342.705 184.136C343.419 183.387 343.855 182.406 344.153 181.43C344.807 179.287 344.539 176.716 342.383 175.539C341.379 174.991 338.371 174.993 337.175 175.264C335.917 175.549 334.492 178.324 334.422 178.584C334.378 178.746 334.4 178.946 334.252 179.053C333.926 179.29 333.388 178.879 333.148 178.677C332.733 178.327 332.437 177.862 332.181 177.39C331.623 176.363 331.173 175.262 330.855 174.137C330.61 173.271 330.453 172.377 330.132 171.532C329.814 170.691 329.311 169.94 328.53 169.464C327.68 168.946 326.705 168.673 325.772 168.347C324.847 168.025 323.938 167.63 323.221 166.946C323.063 166.795 322.91 166.635 322.783 166.458C322.683 166.318 322.584 166.05 322.432 165.961C322.194 165.823 321.848 166.182 321.643 166.313C320.63 166.956 319.786 167.852 319.105 168.832C318.427 169.806 317.871 170.744 317.42 171.831C317.085 172.638 316.876 173.672 316.286 174.333C316.023 174.628 314.068 174.807 313.435 174.549C312.801 174.291 312.091 173.622 311.879 173.202C311.661 172.773 311.609 172.301 311.702 171.831C311.757 171.555 311.868 171.297 311.93 171.025C311.981 170.797 312.028 170.581 312.139 170.372C312.349 169.976 312.709 169.692 313.142 169.573C312.691 169.157 312.317 168.659 312.059 168.103C311.79 167.525 311.562 166.822 311.497 166.187C311.445 165.672 311.526 165.138 311.808 164.695C312.104 164.231 312.628 163.928 313.082 163.638C312.389 163.096 311.796 162.437 311.308 161.707C310.36 160.288 309.774 158.498 310.255 156.806Z" fill="#191847"/>
<path fill-rule="evenodd" clip-rule="evenodd" d="M345.82 284.25L311.936 370.013L289.209 442.519H280.235L314.979 284.25L345.82 284.25Z" fill="#997659"/>
<path fill-rule="evenodd" clip-rule="evenodd" d="M352.644 284.25C353.005 314.388 358.267 354.964 359.108 356.842C359.668 358.095 379.017 374.021 417.153 404.623L410.972 411.237C365.974 385 342.434 370.132 340.352 366.633C337.229 361.384 327.06 313.082 318.896 284.25H352.644Z" fill="#B28B67"/>
<path fill-rule="evenodd" clip-rule="evenodd" d="M417.98 402.415C420.055 403.148 421.485 403.844 422.27 404.502C423.223 405.302 424.482 406.629 426.045 408.482C425.116 409.588 416.773 419.531 401.015 438.31C397.802 436.935 396.794 435.327 397.992 433.485C399.189 431.644 400.168 430.102 400.93 428.859L406.383 409.809C406.488 409.442 406.87 409.23 407.237 409.335C407.243 409.337 407.249 409.339 407.255 409.341L410.165 410.263C412.184 409.323 413.598 408.369 414.409 407.402C415.068 406.617 415.661 405.266 416.188 403.35L416.188 403.35C416.39 402.615 417.15 402.183 417.885 402.385C417.917 402.394 417.949 402.404 417.98 402.415Z" fill="#E4E4E4"/>
<path fill-rule="evenodd" clip-rule="evenodd" d="M292.883 439.172C293.656 441.234 294.042 442.776 294.042 443.8C294.042 445.045 293.835 446.862 293.42 449.25C291.976 449.25 278.996 449.25 254.481 449.25C253.469 445.905 254.054 444.099 256.234 443.832C258.414 443.565 260.225 443.324 261.667 443.11L279.765 435.041C280.113 434.886 280.521 435.042 280.677 435.391C280.679 435.397 280.682 435.403 280.684 435.409L281.848 438.231C283.866 439.172 285.506 439.643 286.768 439.643C287.793 439.643 289.209 439.229 291.015 438.401L291.015 438.401C291.708 438.083 292.528 438.388 292.846 439.081C292.859 439.111 292.872 439.141 292.883 439.172Z" fill="#E4E4E4"/>
<path fill-rule="evenodd" clip-rule="evenodd" d="M323.038 435.051L280.369 430.42L311.992 284.25H350.208L323.038 435.051Z" fill="#69A1AC"/>
<path fill-rule="evenodd" clip-rule="evenodd" d="M408.327 393.951L380.339 427.079C350.86 394.883 333.674 373.875 328.78 364.055C323.887 354.235 319.487 327.633 315.583 284.25H358.607C360.74 322.417 362.178 342.388 362.921 344.164C363.663 345.94 378.799 362.536 408.327 393.951Z" fill="#89C5CC"/>
<path fill-rule="evenodd" clip-rule="evenodd" d="M292.191 270.148L268.796 289.981C262.234 292.254 256.803 294.89 252.503 297.89C251.51 298.93 250.366 300.976 254.739 300.33C259.111 299.685 263.74 299.203 264.451 300.66C265.162 302.117 262.627 304.096 263.995 306.033C264.907 307.325 268.533 303.673 274.872 295.077L298.584 283.243L292.191 270.148ZM398.127 261.565L384.4 263.559C399.134 295.527 407.034 312.434 408.098 314.279C410.492 318.43 407.676 325.661 406.575 329.489C412.139 331.096 410.362 322.5 417.396 324.644C423.817 326.601 429.115 331.037 435.474 325.762C436.256 325.113 436.915 322.993 434.43 321.757C428.239 318.679 419.149 313.046 417.736 310.97C415.809 308.139 409.273 291.671 398.127 261.565Z" fill="#B28B67"/>
<path fill-rule="evenodd" clip-rule="evenodd" d="M340.755 205.607L332.25 202.795C320.712 231.617 303.504 259.504 274.754 283.059L281.864 295.325C307.131 280.441 331.049 268.879 340.755 246.545C344.013 239.049 341.021 214.57 340.755 205.607Z" fill="#C5CFD6"/>
<path fill-rule="evenodd" clip-rule="evenodd" d="M369.969 286.725C345.604 289.308 326.426 289.308 312.436 286.725C310.702 286.405 310.429 283.503 311.233 281.533C323.751 250.861 332.334 224.098 332.334 202.795C334.631 203.953 338.651 204.126 344.394 203.315C359.827 225.27 366.921 250.46 369.969 286.725Z" fill="#323337"/>
<path fill-rule="evenodd" clip-rule="evenodd" d="M348.23 201.475H341.799C340.301 210.283 335.578 329.554 320.996 368.57H399.895C398.185 332.828 384.692 289.893 371.023 253.964C383.109 265.025 393.644 283.765 402.626 310.186L417.404 306.393C406.416 259.043 383.824 224.241 349.628 201.986C349.554 201.815 349.48 201.644 349.407 201.475H348.838C348.628 201.341 348.418 201.207 348.208 201.073L348.23 201.475Z" fill="#DDE3E9"/>
<defs>
<clipPath id="clip0">
<rect width="63.1715" height="134" fill="white" transform="translate(594 15)"/>
</clipPath>
<clipPath id="clip1">
<rect width="55.6286" height="118" fill="white" transform="translate(499)"/>
</clipPath>
<clipPath id="clip2">
<rect width="90.4669" height="186" fill="white" transform="translate(460 248)"/>
</clipPath>
<clipPath id="clip3">
<rect width="84.2341" height="214" fill="white" transform="translate(73 218)"/>
</clipPath>
<clipPath id="clip4">
<rect width="107.429" height="188" fill="white" transform="translate(564 239)"/>
</clipPath>
<clipPath id="clip5">
<rect width="142.027" height="337" fill="white" transform="matrix(-1 0 0 1 149.027 96)"/>
</clipPath>
</defs>
</svg>
